<?xml version="1.0" encoding="UTF-8"?>
<svg width="20px" height="20px" viewBox="0 0 20 20" version="1.1" xmlns="http://www.w3.org/2000/svg" xmlns:xlink="http://www.w3.org/1999/xlink">
    <title>team-short-4</title>
    <defs>
        <linearGradient x1="49.9998633%" y1="-5.38490998e-09%" x2="49.9998633%" y2="62.1304045%" id="linearGradient-1">
            <stop stop-color="#E3CD9E" offset="0%"></stop>
            <stop stop-color="#C29F65" offset="100%"></stop>
        </linearGradient>
        <linearGradient x1="49.99985%" y1="0%" x2="49.99985%" y2="100%" id="linearGradient-2">
            <stop stop-color="#FFFFFF" offset="0%"></stop>
            <stop stop-color="#FFEFCD" offset="100%"></stop>
        </linearGradient>
    </defs>
    <g id="页面-1" stroke="none" stroke-width="1" fill="none" fill-rule="evenodd">
        <g id="team-short-4" transform="translate(0.000000, 0.000000)" fill-rule="nonzero">
            <path d="M10.1077688,0.000500278923 C4.6582788,-0.0536227011 0.0541548,4.28995 0,10.0139 C0.0674418,15.5799 4.4422688,20.0135 10.0221688,20.0000307 C15.5930688,19.9911 19.9499688,15.5889 19.9996688,10.0997 C20.0445688,4.31257 15.4088688,0.0457373989 10.1077688,0.000500278923 Z" id="路径" fill="url(#linearGradient-1)"></path>
            <path d="M16.6891688,12 L15.6468688,12 C15.2609688,12 14.9366688,12.2108 14.7596688,12.5396 L13.1065688,16.2213 C13.0296688,16.4266 12.9999688,16.5824 12.9999688,16.7406 L12.9999688,17.3989 L13.0061688,17.5136 C13.0592688,18.0008 13.4489688,18.3543 13.9554688,18.3543 L15.9709688,18.354 L15.9714688,19.0446 C15.9714688,19.59 16.3813688,20 16.9268688,20 L17.9051688,20 L18.0198688,19.9938 C18.5070688,19.9407 18.8605688,19.5511 18.8605688,19.0446 L18.8599688,18.265 L18.8725688,18.2603 C19.1908688,18.109 19.3999688,17.7885 19.3999688,17.3989 L19.3999688,16.5669 L19.3938688,16.4521 C19.3616688,16.157 19.2059688,15.9109 18.9756688,15.7628 L18.8599688,15.7 L18.8605688,13.8169 L18.8543688,13.7021 C18.8012688,13.2149 18.4116688,12.8614 17.9051688,12.8614 L17.6269688,12.861 L17.6211688,12.7861 C17.6048688,12.6738 17.5668688,12.5603 17.5035688,12.4518 C17.3205688,12.138 17.0101688,12 16.6891688,12 Z" id="路径" fill="#C29F65"></path>
            <path d="M17.9059688,19.2008 C18.0095688,19.2008 18.0613688,19.149 18.0613688,19.0454 L18.0613688,17.6099 C18.0613688,17.5734 18.0796688,17.5551 18.1161688,17.5551 L18.4453688,17.5551 C18.5489688,17.5551 18.6007688,17.5033 18.6007688,17.3996 L18.6007688,16.5676 C18.6007688,16.464 18.5489688,16.4122 18.4453688,16.4122 L18.1161688,16.4122 C18.0796688,16.4122 18.0613688,16.3939 18.0613688,16.3574 L18.0613688,13.8176 C18.0613688,13.714 18.0095688,13.6622 17.9059688,13.6622 L16.9276688,13.6622 C16.8240688,13.6622 16.7721688,13.714 16.7721688,13.8176 L16.7721688,16.3574 C16.7721688,16.3939 16.7539688,16.4122 16.7173688,16.4122 L15.3550688,16.4122 C15.3062688,16.4122 15.2910688,16.3909 15.3093688,16.3482 L16.8087688,12.9836 C16.8331688,12.9349 16.8346688,12.8922 16.8133688,12.8556 C16.7920688,12.8191 16.7508688,12.8008 16.6899688,12.8008 L15.6476688,12.8008 C15.5683688,12.8008 15.5074688,12.8404 15.4647688,12.9196 L13.8373688,16.5494 C13.8129688,16.6164 13.8007688,16.6804 13.8007688,16.7414 L13.8007688,17.3996 C13.8007688,17.5033 13.8525688,17.5551 13.9561688,17.5551 L16.7173688,17.5551 C16.7539688,17.5551 16.7721688,17.5734 16.7721688,17.6099 L16.7721688,19.0454 C16.7721688,19.149 16.8240688,19.2008 16.9276688,19.2008 L17.9059688,19.2008 Z" id="路径" fill="#FFFFFF"></path>
            <path d="M14.9999688,11.133 C14.9999688,11.7711 14.7530688,12.3838 14.3124688,12.8394 C12.2752688,14.9469 10.8377688,16 9.9999688,16 C9.1622588,16 7.7247588,14.9469 5.6874988,12.8394 C5.2469288,12.3838 4.9999988,11.7711 4.9999988,11.133 L4.9999988,5 C4.9999988,4.44772 5.4477188,4 5.9999988,4 L13.9999688,4 C14.5522688,4 14.9999688,4.44772 14.9999688,5 L14.9999688,11.133 Z" id="路径" fill="url(#linearGradient-2)"></path>
            <path d="M10.8176688,8.63542 L10.8176688,11.6354 C10.8176688,12.087 10.4515688,12.4531 9.9999688,12.4531 C9.5483888,12.4531 9.1822888,12.087 9.1822888,11.6354 L9.1822888,8.63542 L7.8177088,8.63542 C7.5255688,8.63542 7.2556188,8.47956 7.1095488,8.22656 C6.9634788,7.97356 6.9634788,7.66185 7.1095488,7.40885 C7.2556188,7.15585 7.5255688,7 7.8177088,7 L12.1822688,7 C12.6338688,7 12.9999688,7.3661 12.9999688,7.81771 C12.9999688,8.26932 12.6338688,8.63542 12.1822688,8.63542 L10.8176688,8.63542 Z" id="路径" fill="#C29F65"></path>
        </g>
    </g>
</svg>