<svg width="21" height="20" viewBox="0 0 21 20" fill="none" xmlns="http://www.w3.org/2000/svg">
<circle cx="10" cy="10" r="10" fill="url(#paint0_linear_904_33)"/>
<path fill-rule="evenodd" clip-rule="evenodd" d="M9.6187 5.62377L13.0714 13.6394C13.2905 14.1481 13.0239 14.7254 12.4757 14.9288C11.9276 15.1322 11.3057 14.8847 11.0865 14.376L10.489 12.988H6.677L6.05736 14.3855C5.8486 14.8559 5.29503 15.0978 4.78001 14.9629L4.66202 14.925C4.11622 14.7163 3.85601 14.1364 4.08084 13.6298L7.638 5.61422C8.00349 4.79065 9.26245 4.79672 9.6187 5.62377ZM15 5.05161C15.4734 5.05161 15.8699 5.38055 15.9736 5.82232C15.9915 5.89942 16 5.97063 16 6.04368V13.9802C16 14.0551 15.9911 14.1281 15.9741 14.1982C15.8717 14.6419 15.4744 14.9723 15 14.9723H14.8624C14.3691 14.9723 13.9592 14.6151 13.8773 14.1453C13.8674 14.0912 13.8624 14.0362 13.8624 13.9802V6.04368C13.8624 5.97063 13.8709 5.89942 13.887 5.83086C13.9924 5.38055 14.389 5.05161 14.8624 5.05161H15ZM8.61117 8.62899L7.557 11.004H9.634L8.61117 8.62899Z" fill="url(#paint1_linear_904_33)"/>
<path d="M17.6891 12H16.6469C16.2609 12 15.9367 12.2108 15.7596 12.5396L14.1066 16.2213C14.0297 16.4266 14 16.5824 14 16.7406V17.3989L14.0062 17.5136C14.0593 18.0008 14.4489 18.3543 14.9554 18.3543L16.971 18.354L16.9714 19.0446C16.9714 19.59 17.3814 20 17.9269 20H18.9051L19.0199 19.9938C19.5071 19.9407 19.8606 19.5511 19.8606 19.0446L19.86 18.265L19.8725 18.2603C20.1908 18.109 20.4 17.7885 20.4 17.3989V16.5669L20.3938 16.4521C20.3617 16.157 20.206 15.9109 19.9757 15.7628L19.86 15.7L19.8606 13.8169L19.8544 13.7021C19.8013 13.2149 19.4116 12.8614 18.9051 12.8614L18.627 12.861L18.6211 12.7861C18.6049 12.6738 18.5669 12.5603 18.5036 12.4518C18.3205 12.138 18.0101 12 17.6891 12Z" fill="url(#paint2_linear_904_33)"/>
<path d="M18.9049 19.1998C19.0086 19.1998 19.0604 19.148 19.0604 19.0444V17.6089C19.0604 17.5724 19.0787 17.5541 19.1152 17.5541H19.4444C19.548 17.5541 19.5998 17.5023 19.5998 17.3987V16.5667C19.5998 16.463 19.548 16.4112 19.4444 16.4112H19.1152C19.0787 16.4112 19.0604 16.3929 19.0604 16.3564V13.8167C19.0604 13.713 19.0086 13.6612 18.9049 13.6612H17.9267C17.823 13.6612 17.7712 13.713 17.7712 13.8167V16.3564C17.7712 16.3929 17.7529 16.4112 17.7164 16.4112H16.3541C16.3053 16.4112 16.2901 16.3899 16.3084 16.3472L17.8078 12.9827C17.8322 12.9339 17.8337 12.8912 17.8124 12.8547C17.791 12.8181 17.7499 12.7998 17.6889 12.7998H16.6467C16.5674 12.7998 16.5065 12.8394 16.4638 12.9187L14.8364 16.5484C14.812 16.6154 14.7998 16.6794 14.7998 16.7404V17.3987C14.7998 17.5023 14.8516 17.5541 14.9552 17.5541H17.7164C17.7529 17.5541 17.7712 17.5724 17.7712 17.6089V19.0444C17.7712 19.148 17.823 19.1998 17.9267 19.1998H18.9049Z" fill="white"/>
<defs>
<linearGradient id="paint0_linear_904_33" x1="10" y1="0" x2="10" y2="20" gradientUnits="userSpaceOnUse">
<stop stop-color="#5BE1C1"/>
<stop offset="1" stop-color="#00A2FF"/>
</linearGradient>
<linearGradient id="paint1_linear_904_33" x1="9.5" y1="8.5" x2="10" y2="15" gradientUnits="userSpaceOnUse">
<stop stop-color="white"/>
<stop offset="1" stop-color="#84E0FF"/>
</linearGradient>
<linearGradient id="paint2_linear_904_33" x1="17.2" y1="12" x2="17.2" y2="20" gradientUnits="userSpaceOnUse">
<stop stop-color="#24BCE7"/>
<stop offset="1" stop-color="#00A2FF"/>
</linearGradient>
</defs>
</svg>
