<svg width="20" height="20" viewBox="0 0 20 20" fill="none" xmlns="http://www.w3.org/2000/svg">
<path d="M10 20C15.5229 20 20 15.5229 20 10C20 4.47715 15.5229 0 10 0C4.47715 0 0 4.47715 0 10C0 15.5229 4.47715 20 10 20Z" fill="url(#paint0_linear_807_495)"/>
<path d="M19.1259 12.0046L19.04 12H17.9765C17.8609 12 17.7478 12.0133 17.6378 12.0418L17.5207 12.0794L16.6354 12.419C16.3746 12.4945 16.1262 12.7358 16.0359 13.0664L16.0136 13.1797L16.006 13.2419L16 14.0343C16 14.5198 16.3365 14.9327 16.8533 14.9724L16.9553 14.9737L17.0197 14.9704L17.072 14.964L17.0729 19.0446C17.0729 19.4771 17.3371 19.862 17.7865 19.9712L17.8895 19.9892L17.9471 19.9954L19.04 20C19.466 20 19.8526 19.7496 19.9684 19.2999L19.9884 19.1914L19.9948 19.1355L20 12.9554C20 12.5229 19.7359 12.138 19.2864 12.0288L19.1835 12.0108L19.1259 12.0046Z" fill="#FF6700"/>
<path d="M19.0408 19.2008C19.1474 19.2008 19.2008 19.149 19.2008 19.0454V12.9562C19.2008 12.8526 19.1474 12.8008 19.0408 12.8008H17.9773C17.902 12.8008 17.8361 12.813 17.7796 12.8374L16.9231 13.1665C16.8416 13.1909 16.8008 13.2488 16.8008 13.3402V14.0351C16.8008 14.1448 16.8604 14.1905 16.9796 14.1722L17.8078 14.0076C17.8518 13.9954 17.8737 14.0137 17.8737 14.0625V19.0454C17.8737 19.149 17.9271 19.2008 18.0337 19.2008H19.0408Z" fill="white"/>
<path d="M13.9927 5C14.2965 5.01035 14.5746 5.17085 14.7326 5.42698L16.871 8.88731C17.0744 9.22092 17.0342 9.64618 16.7718 9.93697L10.6632 16.7064C10.4926 16.8927 10.2501 16.9994 9.99549 17C9.73774 17.0019 9.49145 16.8951 9.31876 16.7064L3.22825 9.93697C2.96577 9.64618 2.92556 9.22092 3.12899 8.88731L5.22233 5.43588C5.38315 5.16843 5.67393 5.00317 5.98928 5H13.9927ZM11.8496 7.2C11.489 7.2 11.1866 7.47633 11.1485 7.84051H11.1405V11.1149C11.1449 11.1583 11.1413 11.2022 11.1299 11.2442C11.0967 11.3433 11.0399 11.4324 10.9643 11.5035C10.8578 11.6034 10.7323 11.6802 10.5956 11.7291C10.3904 11.7997 10.1736 11.8291 9.95736 11.8155L9.957 11.973L9.94796 11.8149C9.78956 11.8248 9.63085 11.8116 9.47658 11.7762L9.32398 11.7333C9.18982 11.6867 9.06616 11.6135 8.96022 11.5178C8.87519 11.4347 8.77698 11.3672 8.77698 11.2749V7.84051C8.73069 7.47656 8.42828 7.20058 8.06789 7.20058C7.7075 7.20058 7.40509 7.47656 7.36668 7.84051H7.3588V7.92256L7.36759 11.0857C7.38366 11.2875 7.42659 11.4862 7.49521 11.6763C7.58333 11.9328 7.71992 12.1692 7.89731 12.3724C8.11008 12.6148 8.36901 12.8108 8.65846 12.9486C9.04004 13.1219 9.45567 13.2041 9.87339 13.1888H9.94918C9.96349 13.189 9.97775 13.1906 9.99177 13.1935C10.0058 13.1966 10.02 13.1982 10.0344 13.1983C10.449 13.213 10.8613 13.1309 11.2397 12.9582C11.5282 12.8208 11.7869 12.6265 12.0009 12.3868C12.1771 12.1881 12.3135 11.9565 12.4027 11.705C12.4698 11.5205 12.5155 11.3287 12.5391 11.1336L12.5586 7.92549L12.5588 7.84051C12.5127 7.47633 12.2102 7.2 11.8496 7.2Z" fill="url(#paint1_linear_807_495)"/>
<defs>
<linearGradient id="paint0_linear_807_495" x1="10" y1="0" x2="10" y2="11.9833" gradientUnits="userSpaceOnUse">
<stop stop-color="#FF9300"/>
<stop offset="1" stop-color="#FF6000"/>
</linearGradient>
<linearGradient id="paint1_linear_807_495" x1="10" y1="7.22821" x2="10" y2="16.755" gradientUnits="userSpaceOnUse">
<stop stop-color="white"/>
<stop offset="1" stop-color="#FFCCAD"/>
</linearGradient>
</defs>
</svg>
