<svg width="20" height="20" viewBox="0 0 20 20" fill="none" xmlns="http://www.w3.org/2000/svg">
<path d="M10.1077 0.00050028C4.65828 -0.0536227 0.0541544 4.28995 0 10.0139C0.0674413 15.5799 4.44227 20.0135 10.0222 20C15.593 19.9911 19.95 15.5889 19.9997 10.0997C20.0446 4.31257 15.4088 0.0457374 10.1077 0.00050028Z" fill="url(#paint0_linear_807_325)"/>
<path d="M17.0895 12H16.0472C15.6613 12 15.3371 12.2108 15.16 12.5396L13.507 16.2213C13.4301 16.4266 13.4004 16.5824 13.4004 16.7406V17.3989L13.4066 17.5136C13.4597 18.0008 13.8493 18.3543 14.3558 18.3543L16.3714 18.354L16.3718 19.0446C16.3718 19.59 16.7818 20 17.3272 20H18.3055L18.4202 19.9938C18.9075 19.9407 19.261 19.5511 19.261 19.0446L19.2604 18.265L19.2729 18.2603C19.5912 18.109 19.8004 17.7885 19.8004 17.3989V16.5669L19.7942 16.4521C19.7621 16.157 19.6064 15.9109 19.3761 15.7628L19.2604 15.7L19.261 13.8169L19.2548 13.7021C19.2017 13.2149 18.812 12.8614 18.3055 12.8614L18.0274 12.861L18.0215 12.7861C18.0053 12.6738 17.9673 12.5603 17.904 12.4518C17.7209 12.138 17.4105 12 17.0895 12Z" fill="#FF6200"/>
<path d="M18.3063 19.2008C18.4099 19.2008 18.4617 19.149 18.4617 19.0454V17.6099C18.4617 17.5734 18.48 17.5551 18.5166 17.5551H18.8457C18.9494 17.5551 19.0012 17.5033 19.0012 17.3996V16.5676C19.0012 16.464 18.9494 16.4122 18.8457 16.4122H18.5166C18.48 16.4122 18.4617 16.3939 18.4617 16.3574V13.8176C18.4617 13.714 18.4099 13.6622 18.3063 13.6622H17.328C17.2244 13.6622 17.1726 13.714 17.1726 13.8176V16.3574C17.1726 16.3939 17.1543 16.4122 17.1177 16.4122H15.7555C15.7067 16.4122 15.6915 16.3909 15.7097 16.3482L17.2092 12.9836C17.2336 12.9349 17.2351 12.8922 17.2137 12.8556C17.1924 12.8191 17.1513 12.8008 17.0903 12.8008H16.048C15.9688 12.8008 15.9078 12.8404 15.8652 12.9196L14.2377 16.5494C14.2134 16.6164 14.2012 16.6804 14.2012 16.7414V17.3996C14.2012 17.5033 14.253 17.5551 14.3566 17.5551H17.1177C17.1543 17.5551 17.1726 17.5734 17.1726 17.6099V19.0454C17.1726 19.149 17.2244 19.2008 17.328 19.2008H18.3063Z" fill="white"/>
<path d="M13.9927 5C14.2965 5.01035 14.5746 5.17085 14.7326 5.42698L16.871 8.88731C17.0744 9.22092 17.0342 9.64618 16.7718 9.93697L10.6632 16.7064C10.4926 16.8927 10.2501 16.9994 9.99549 17C9.73774 17.0019 9.49145 16.8951 9.31876 16.7064L3.22825 9.93697C2.96577 9.64618 2.92556 9.22092 3.12899 8.88731L5.22233 5.43588C5.38315 5.16843 5.67393 5.00317 5.98928 5H13.9927ZM11.8496 7.2C11.489 7.2 11.1866 7.47633 11.1485 7.84051H11.1405V11.1149C11.1449 11.1583 11.1413 11.2022 11.1299 11.2442C11.0967 11.3433 11.0399 11.4324 10.9643 11.5035C10.8578 11.6034 10.7323 11.6802 10.5956 11.7291C10.3904 11.7997 10.1736 11.8291 9.95736 11.8155L9.957 11.973L9.94796 11.8149C9.78956 11.8248 9.63085 11.8116 9.47658 11.7762L9.32398 11.7333C9.18982 11.6867 9.06616 11.6135 8.96022 11.5178C8.87519 11.4347 8.77698 11.3672 8.77698 11.2749V7.84051C8.73069 7.47656 8.42828 7.20058 8.06789 7.20058C7.7075 7.20058 7.40509 7.47656 7.36668 7.84051H7.3588V7.92256L7.36759 11.0857C7.38366 11.2875 7.42659 11.4862 7.49521 11.6763C7.58333 11.9328 7.71992 12.1692 7.89731 12.3724C8.11008 12.6148 8.36901 12.8108 8.65846 12.9486C9.04004 13.1219 9.45567 13.2041 9.87339 13.1888H9.94918C9.96349 13.189 9.97775 13.1906 9.99177 13.1935C10.0058 13.1966 10.02 13.1982 10.0344 13.1983C10.449 13.213 10.8613 13.1309 11.2397 12.9582C11.5282 12.8208 11.7869 12.6265 12.0009 12.3868C12.1771 12.1881 12.3135 11.9565 12.4027 11.705C12.4698 11.5205 12.5155 11.3287 12.5391 11.1336L12.5586 7.92549L12.5588 7.84051C12.5127 7.47633 12.2102 7.2 11.8496 7.2Z" fill="url(#paint1_linear_807_325)"/>
<defs>
<linearGradient id="paint0_linear_807_325" x1="10" y1="0" x2="10" y2="11.9834" gradientUnits="userSpaceOnUse">
<stop stop-color="#FF9300"/>
<stop offset="1" stop-color="#FF6000"/>
</linearGradient>
<linearGradient id="paint1_linear_807_325" x1="10" y1="7.22821" x2="10" y2="16.755" gradientUnits="userSpaceOnUse">
<stop stop-color="white"/>
<stop offset="1" stop-color="#FFCCAD"/>
</linearGradient>
</defs>
</svg>
