<svg width="56" height="56" viewBox="0 0 56 56" fill="none" xmlns="http://www.w3.org/2000/svg">
<g filter="url(#filter0_i_204_3852)">
<path d="M20.1388 12.8582C20.7427 11.8122 21.7869 11.0951 22.98 10.907L38.2239 8.5037C40.0874 8.20992 41.9029 9.25806 42.5802 11.0188L48.1208 25.4221C48.5545 26.5493 48.4555 27.8122 47.8516 28.8582L36.2753 48.909C35.1707 50.8221 32.7244 51.4776 30.8112 50.3731L10.0266 38.3731C8.11343 37.2685 7.45793 34.8221 8.5625 32.909L20.1388 12.8582Z" fill="white"/>
</g>
<path d="M20.1388 12.8582C20.7427 11.8122 21.7869 11.0951 22.98 10.907L38.2239 8.5037C40.0874 8.20992 41.9029 9.25806 42.5802 11.0188L48.1208 25.4221C48.5545 26.5493 48.4555 27.8122 47.8516 28.8582L36.2753 48.909C35.1707 50.8221 32.7244 51.4776 30.8112 50.3731L10.0266 38.3731C8.11343 37.2685 7.45793 34.8221 8.5625 32.909L20.1388 12.8582Z" stroke="black" stroke-width="2"/>
<circle cx="31.8692" cy="23.8023" r="5" transform="rotate(30 31.8692 23.8023)" fill="#0066FF"/>
<path d="M15.959 33.209L30.9247 41.8494" stroke="black" stroke-width="2" stroke-linecap="round"/>
<defs>
<filter id="filter0_i_204_3852" x="7.02539" y="7.45459" width="42.3613" height="44.4551" filterUnits="userSpaceOnUse" color-interpolation-filters="sRGB">
<feFlood flood-opacity="0" result="BackgroundImageFix"/>
<feBlend mode="normal" in="SourceGraphic" in2="BackgroundImageFix" result="shape"/>
<feColorMatrix in="SourceAlpha" type="matrix" values="0 0 0 0 0 0 0 0 0 0 0 0 0 0 0 0 0 0 127 0" result="hardAlpha"/>
<feOffset dx="4" dy="4"/>
<feComposite in2="hardAlpha" operator="arithmetic" k2="-1" k3="1"/>
<feColorMatrix type="matrix" values="0 0 0 0 0.701961 0 0 0 0 0.819608 0 0 0 0 1 0 0 0 1 0"/>
<feBlend mode="normal" in2="shape" result="effect1_innerShadow_204_3852"/>
</filter>
</defs>
</svg>
