<svg width="56" height="56" viewBox="0 0 56 56" fill="none" xmlns="http://www.w3.org/2000/svg">
<g filter="url(#filter0_i_204_3840)">
<path d="M42.0918 32.5065C40.5797 30.9663 38.1467 31.4292 36.445 32.7569C35.7227 33.3205 34.9528 33.8083 34.1447 34.2125C32.2172 35.1767 30.1214 35.6407 28.0128 35.57C25.9081 35.6592 23.8125 35.2153 21.8807 34.2712C21.0635 33.8718 20.2844 33.3872 19.5532 32.8253C17.8528 31.5188 15.4373 31.0692 13.9326 32.597C12.2292 34.3266 10.7829 36.3648 9.65777 38.6357C8.51874 40.9346 7.73316 43.4228 7.32555 45.9955C6.97855 48.1857 8.80398 50 11.0215 50H44.996C47.2067 50 49.0295 48.1966 48.6946 46.0114C48.2961 43.4113 47.5119 40.8951 46.367 38.5708C45.2437 36.2906 43.7972 34.2437 42.0918 32.5065Z" fill="white"/>
</g>
<path d="M37.0602 33.5453C37.784 32.9806 38.6389 32.622 39.4275 32.5523C40.1975 32.4844 40.8693 32.6887 41.3782 33.2071C43.0067 34.8659 44.3921 36.8248 45.4699 39.0127C46.5686 41.243 47.3227 43.661 47.7061 46.1629C47.9324 47.6394 46.7031 49 44.996 49H11.0215C9.30885 49 8.07885 47.6314 8.31323 46.152C8.70543 43.6766 9.46087 41.2855 10.5538 39.0796C11.6334 36.9007 13.0186 34.9502 14.6451 33.2987C15.1515 32.7845 15.8195 32.5801 16.5854 32.6448C17.3696 32.7109 18.2204 33.0624 18.9439 33.6183C19.727 34.22 20.5629 34.7402 21.4416 35.1697C23.5082 36.1797 25.7554 36.6601 28.0173 36.5706C30.2833 36.6402 32.5303 36.1382 34.5921 35.1069C35.4609 34.6723 36.2868 34.1487 37.0602 33.5453Z" stroke="black" stroke-width="2"/>
<path d="M13.6669 27.8832V17.7201C14.886 14.8656 16.886 12.438 19.4229 10.7336C21.9597 9.02914 24.9237 8.12155 27.9531 8.12155C30.9826 8.12155 33.9466 9.02914 36.4834 10.7336C39.0203 12.438 41.0202 14.8656 42.2394 17.7201V27.8832C43.412 27.8193 44.5318 27.3609 45.4268 26.5786C46.3219 25.7963 46.9428 24.7332 47.1941 23.5526C47.4454 22.372 47.3133 21.1391 46.818 20.0433C46.3228 18.9474 45.4917 18.0492 44.4525 17.4864C43.1245 14.0938 40.8412 11.1873 37.8961 9.14049C34.9509 7.09367 31.4784 6 27.9248 6C24.3711 6 20.8986 7.09367 17.9535 9.14049C15.0083 11.1873 12.725 14.0938 11.397 17.4864C10.2953 18.0203 9.40283 18.9241 8.8665 20.0494C8.33018 21.1746 8.18191 22.4543 8.44607 23.6778C8.71023 24.9013 9.37109 25.9958 10.32 26.7814C11.2688 27.5669 12.4492 27.9967 13.6669 28V27.8832Z" fill="url(#paint0_linear_204_3840)"/>
<path d="M13.6669 27.8832V17.7201C14.886 14.8656 16.886 12.438 19.4229 10.7336C21.9597 9.02914 24.9237 8.12155 27.9531 8.12155C30.9826 8.12155 33.9466 9.02914 36.4834 10.7336C39.0203 12.438 41.0202 14.8656 42.2394 17.7201V27.8832C43.412 27.8193 44.5318 27.3609 45.4268 26.5786C46.3219 25.7963 46.9428 24.7332 47.1941 23.5526C47.4454 22.372 47.3133 21.1391 46.818 20.0433C46.3228 18.9474 45.4917 18.0492 44.4525 17.4864C43.1245 14.0938 40.8412 11.1873 37.8961 9.14049C34.9509 7.09367 31.4784 6 27.9248 6C24.3711 6 20.8986 7.09367 17.9535 9.14049C15.0083 11.1873 12.725 14.0938 11.397 17.4864C10.2953 18.0203 9.40283 18.9241 8.8665 20.0494C8.33018 21.1746 8.18191 22.4543 8.44607 23.6778C8.71023 24.9013 9.37109 25.9958 10.32 26.7814C11.2688 27.5669 12.4492 27.9967 13.6669 28V27.8832Z" fill="#0066FF"/>
<g filter="url(#filter1_i_204_3840)">
<circle cx="28" cy="22" r="10" fill="white"/>
</g>
<circle cx="28" cy="22" r="9" stroke="black" stroke-width="2"/>
<defs>
<filter id="filter0_i_204_3840" x="7.2832" y="31.54" width="41.4512" height="18.46" filterUnits="userSpaceOnUse" color-interpolation-filters="sRGB">
<feFlood flood-opacity="0" result="BackgroundImageFix"/>
<feBlend mode="normal" in="SourceGraphic" in2="BackgroundImageFix" result="shape"/>
<feColorMatrix in="SourceAlpha" type="matrix" values="0 0 0 0 0 0 0 0 0 0 0 0 0 0 0 0 0 0 127 0" result="hardAlpha"/>
<feOffset dx="6" dy="-1"/>
<feComposite in2="hardAlpha" operator="arithmetic" k2="-1" k3="1"/>
<feColorMatrix type="matrix" values="0 0 0 0 0.701961 0 0 0 0 0.819608 0 0 0 0 1 0 0 0 1 0"/>
<feBlend mode="normal" in2="shape" result="effect1_innerShadow_204_3840"/>
</filter>
<filter id="filter1_i_204_3840" x="18" y="12" width="20" height="20" filterUnits="userSpaceOnUse" color-interpolation-filters="sRGB">
<feFlood flood-opacity="0" result="BackgroundImageFix"/>
<feBlend mode="normal" in="SourceGraphic" in2="BackgroundImageFix" result="shape"/>
<feColorMatrix in="SourceAlpha" type="matrix" values="0 0 0 0 0 0 0 0 0 0 0 0 0 0 0 0 0 0 127 0" result="hardAlpha"/>
<feOffset dx="6" dy="-1"/>
<feComposite in2="hardAlpha" operator="arithmetic" k2="-1" k3="1"/>
<feColorMatrix type="matrix" values="0 0 0 0 0.701961 0 0 0 0 0.819608 0 0 0 0 1 0 0 0 1 0"/>
<feBlend mode="normal" in2="shape" result="effect1_innerShadow_204_3840"/>
</filter>
<linearGradient id="paint0_linear_204_3840" x1="46.5294" y1="28.6484" x2="8.31836" y2="28.6484" gradientUnits="userSpaceOnUse">
<stop stop-color="#00FFFD"/>
<stop offset="0.512584" stop-color="#EC00FF"/>
<stop offset="1" stop-color="#FF6700"/>
</linearGradient>
</defs>
</svg>
