<svg width="56" height="56" viewBox="0 0 56 56" fill="none" xmlns="http://www.w3.org/2000/svg">
<path opacity="0.3" d="M45.4961 40.8505C45.4961 43.4364 43.3998 45.5327 40.8139 45.5327L13.9691 45.5327C11.3831 45.5327 9.28683 43.4364 9.28683 40.8505L9.28683 40.5383L45.4961 40.5383L45.4961 40.8505Z" fill="#0267FE"/>
<path d="M10.127 11.499V43.5661C10.127 44.6707 11.0224 45.5661 12.127 45.5661H43.5179C44.6224 45.5661 45.5179 44.6707 45.5179 43.5661V11.499C45.5179 10.3945 44.6224 9.49902 43.5179 9.49902H12.127C11.0224 9.49902 10.127 10.3945 10.127 11.499Z" stroke="black" stroke-width="2" stroke-miterlimit="10" stroke-linecap="round"/>
<rect x="7.57812" y="7.00195" width="4.99438" height="4.99438" rx="1.2486" fill="black"/>
<rect x="7.57812" y="42.5078" width="4.99438" height="4.99438" rx="1.2486" fill="black"/>
<rect x="42.998" y="42.5078" width="4.99438" height="4.99438" rx="1.2486" fill="black"/>
<rect x="43.0059" y="7.00195" width="4.99438" height="4.99438" rx="1.2486" fill="black"/>
<path d="M33.9467 25.1936H32.8599V22.5623C32.8599 20.082 30.6862 18.064 28.0166 18.064C25.347 18.064 23.1734 20.0798 23.1734 22.5623V25.1936H22.1054C21.6999 25.1798 21.3055 25.3274 21.0086 25.6039C20.7117 25.8804 20.5365 26.2634 20.5215 26.6688V33.7498C20.5373 34.1551 20.7131 34.5377 21.0104 34.8137C21.3077 35.0897 21.7023 35.2365 22.1077 35.2222H33.9484C34.3538 35.2365 34.7484 35.0897 35.0457 34.8137C35.343 34.5377 35.5188 34.1551 35.5346 33.7498V26.6688C35.5196 26.2626 35.3439 25.8791 35.0461 25.6024C34.7483 25.3258 34.3529 25.1787 33.9467 25.1936ZM25.1949 22.5623C25.2466 21.8499 25.5662 21.1835 26.0892 20.6971C26.6123 20.2107 27.3001 19.9403 28.0143 19.9403C28.7286 19.9403 29.4164 20.2107 29.9394 20.6971C30.4625 21.1835 30.782 21.8499 30.8338 22.5623V25.1982H25.1966V22.5623H25.1949ZM29.0623 31.841C29.0423 32.1165 28.9188 32.3742 28.7165 32.5624C28.5142 32.7505 28.2482 32.8551 27.972 32.8551C27.6958 32.8551 27.4298 32.7505 27.2275 32.5624C27.0252 32.3742 26.9017 32.1165 26.8817 31.841V28.7761C26.9017 28.5006 27.0252 28.2429 27.2275 28.0547C27.4298 27.8666 27.6958 27.762 27.972 27.762C28.2482 27.762 28.5142 27.8666 28.7165 28.0547C28.9188 28.2429 29.0423 28.5006 29.0623 28.7761V31.841Z" fill="#0267FE"/>
</svg>
