<svg width="56" height="56" viewBox="0 0 56 56" fill="none" xmlns="http://www.w3.org/2000/svg">
<path opacity="0.3" d="M11.666 12.542C11.666 10.1257 13.6248 8.16699 16.041 8.16699H39.9577C42.3739 8.16699 44.3327 10.1257 44.3327 12.542V12.8337H11.666V12.542Z" fill="#0066FF"/>
<path d="M44.3327 25.5892V12.167C44.3327 9.95785 42.5418 8.16699 40.3327 8.16699H15.666C13.4569 8.16699 11.666 9.95785 11.666 12.167V42.667C11.666 44.8761 13.4569 46.667 15.666 46.667H29.5827" stroke="black" stroke-width="2" stroke-linecap="round" stroke-linejoin="round"/>
<path d="M17.5 18.6665H38.5" stroke="black" stroke-width="2" stroke-linecap="round"/>
<path d="M17.5 26.25H32.6667" stroke="black" stroke-width="2" stroke-linecap="round"/>
<path d="M17.5 33.8335H28" stroke="black" stroke-width="2" stroke-linecap="round"/>
<rect x="33.834" y="36.708" width="15" height="11.25" rx="1.16667" fill="#0066FF"/>
<rect x="37.2734" y="30.458" width="8.75" height="11.25" rx="4.375" stroke="#0066FF" stroke-width="2"/>
</svg>
