<svg width="56" height="56" viewBox="0 0 56 56" fill="none" xmlns="http://www.w3.org/2000/svg">
<path d="M13 11V24.9381C9.05369 24.446 6 21.0796 6 17V11H13Z" stroke="black" stroke-width="2"/>
<path d="M42 11V24.9381C45.9463 24.446 49 21.0796 49 17V11H42Z" stroke="black" stroke-width="2"/>
<g filter="url(#filter0_i_204_3791)">
<path d="M45 7C45 5.89543 44.1046 5 43 5H13C11.8954 5 11 5.89543 11 7V21.9267C11 28.5709 16.2737 34.2316 22.5169 36.3855C23.3854 36.6852 24.0156 37.4749 24.0156 38.3937V47.625C24.0156 48.7296 24.9111 49.625 26.0156 49.625H29.9844C31.0889 49.625 31.9844 48.7296 31.9844 47.625V38.3937C31.9844 37.4749 32.6146 36.6852 33.4831 36.3855C39.7263 34.2316 45 28.5709 45 21.9267V7Z" fill="white"/>
</g>
<path d="M13 6H43C43.5523 6 44 6.44772 44 7V21.9267C44 28.0264 39.121 33.3826 33.157 35.4402C31.9344 35.862 30.9844 36.9984 30.9844 38.3937V47.625C30.9844 48.1773 30.5367 48.625 29.9844 48.625H26.0156C25.4633 48.625 25.0156 48.1773 25.0156 47.625V38.3937C25.0156 36.9984 24.0656 35.862 22.843 35.4402C16.879 33.3826 12 28.0264 12 21.9267V7C12 6.44772 12.4477 6 13 6Z" stroke="black" stroke-width="2"/>
<path d="M34.9527 18.8926C34.8945 18.7046 34.7843 18.5387 34.6359 18.416C34.4875 18.2932 34.3075 18.219 34.1188 18.2028L30.7108 17.905L29.3861 14.6146C29.3128 14.4325 29.1896 14.277 29.0319 14.1677C28.8742 14.0583 28.6891 14 28.4998 14C28.3104 14 28.1253 14.0583 27.9676 14.1677C27.8099 14.277 27.6867 14.4325 27.6134 14.6146L26.2889 17.9052L22.8808 18.2029C22.6922 18.2195 22.5124 18.2937 22.3641 18.4164C22.2158 18.5391 22.1055 18.7047 22.047 18.8925C21.9886 19.0802 21.9845 19.2819 22.0354 19.472C22.0863 19.6622 22.1899 19.8325 22.3332 19.9615L24.9231 22.2929L24.1411 25.768C24.0979 25.9603 24.1101 26.1615 24.1761 26.3465C24.2421 26.5315 24.359 26.6921 24.5121 26.8081C24.6652 26.9242 24.8478 26.9904 25.0369 26.9987C25.2259 27.007 25.4131 26.9568 25.575 26.8546L28.4997 25.0052L31.4244 26.8549C31.5864 26.9572 31.7736 27.0074 31.9628 26.9991C32.1519 26.9909 32.3345 26.9245 32.4877 26.8084C32.6408 26.6923 32.7577 26.5317 32.8237 26.3465C32.8896 26.1614 32.9018 25.9601 32.8585 25.7679L32.0765 22.2931L34.6663 19.9615C34.8098 19.8328 34.9136 19.6625 34.9646 19.4723C35.0156 19.2821 35.0114 19.0804 34.9527 18.8926V18.8926Z" fill="url(#paint0_linear_204_3791)"/>
<path d="M34.9527 18.8926C34.8945 18.7046 34.7843 18.5387 34.6359 18.416C34.4875 18.2932 34.3075 18.219 34.1188 18.2028L30.7108 17.905L29.3861 14.6146C29.3128 14.4325 29.1896 14.277 29.0319 14.1677C28.8742 14.0583 28.6891 14 28.4998 14C28.3104 14 28.1253 14.0583 27.9676 14.1677C27.8099 14.277 27.6867 14.4325 27.6134 14.6146L26.2889 17.9052L22.8808 18.2029C22.6922 18.2195 22.5124 18.2937 22.3641 18.4164C22.2158 18.5391 22.1055 18.7047 22.047 18.8925C21.9886 19.0802 21.9845 19.2819 22.0354 19.472C22.0863 19.6622 22.1899 19.8325 22.3332 19.9615L24.9231 22.2929L24.1411 25.768C24.0979 25.9603 24.1101 26.1615 24.1761 26.3465C24.2421 26.5315 24.359 26.6921 24.5121 26.8081C24.6652 26.9242 24.8478 26.9904 25.0369 26.9987C25.2259 27.007 25.4131 26.9568 25.575 26.8546L28.4997 25.0052L31.4244 26.8549C31.5864 26.9572 31.7736 27.0074 31.9628 26.9991C32.1519 26.9909 32.3345 26.9245 32.4877 26.8084C32.6408 26.6923 32.7577 26.5317 32.8237 26.3465C32.8896 26.1614 32.9018 25.9601 32.8585 25.7679L32.0765 22.2931L34.6663 19.9615C34.8098 19.8328 34.9136 19.6625 34.9646 19.4723C35.0156 19.2821 35.0114 19.0804 34.9527 18.8926V18.8926Z" fill="#0066FF"/>
<g filter="url(#filter1_i_204_3791)">
<path d="M15 50H41V48C41 44.6863 38.3137 42 35 42H21C17.6863 42 15 44.6863 15 48V50Z" fill="white"/>
</g>
<path d="M16 49H40V48C40 45.2386 37.7614 43 35 43H21C18.2386 43 16 45.2386 16 48V49Z" stroke="black" stroke-width="2"/>
<defs>
<filter id="filter0_i_204_3791" x="11" y="5" width="34" height="44.625" filterUnits="userSpaceOnUse" color-interpolation-filters="sRGB">
<feFlood flood-opacity="0" result="BackgroundImageFix"/>
<feBlend mode="normal" in="SourceGraphic" in2="BackgroundImageFix" result="shape"/>
<feColorMatrix in="SourceAlpha" type="matrix" values="0 0 0 0 0 0 0 0 0 0 0 0 0 0 0 0 0 0 127 0" result="hardAlpha"/>
<feOffset dx="6" dy="-1"/>
<feComposite in2="hardAlpha" operator="arithmetic" k2="-1" k3="1"/>
<feColorMatrix type="matrix" values="0 0 0 0 0.701961 0 0 0 0 0.819608 0 0 0 0 1 0 0 0 1 0"/>
<feBlend mode="normal" in2="shape" result="effect1_innerShadow_204_3791"/>
</filter>
<filter id="filter1_i_204_3791" x="15" y="42" width="26" height="8" filterUnits="userSpaceOnUse" color-interpolation-filters="sRGB">
<feFlood flood-opacity="0" result="BackgroundImageFix"/>
<feBlend mode="normal" in="SourceGraphic" in2="BackgroundImageFix" result="shape"/>
<feColorMatrix in="SourceAlpha" type="matrix" values="0 0 0 0 0 0 0 0 0 0 0 0 0 0 0 0 0 0 127 0" result="hardAlpha"/>
<feOffset dx="6" dy="-1"/>
<feComposite in2="hardAlpha" operator="arithmetic" k2="-1" k3="1"/>
<feColorMatrix type="matrix" values="0 0 0 0 0.701961 0 0 0 0 0.819608 0 0 0 0 1 0 0 0 1 0"/>
<feBlend mode="normal" in2="shape" result="effect1_innerShadow_204_3791"/>
</filter>
<linearGradient id="paint0_linear_204_3791" x1="35" y1="26.9118" x2="22" y2="26.9118" gradientUnits="userSpaceOnUse">
<stop stop-color="#00FFFD"/>
<stop offset="0.512584" stop-color="#EC00FF"/>
<stop offset="1" stop-color="#FF6700"/>
</linearGradient>
</defs>
</svg>
