<svg xmlns="http://www.w3.org/2000/svg" width="126.205" height="92.415"><g data-name="Group 293419" fill="#ff600099"><path data-name="Path 129267" d="m125.349 80.348-1.192.481a19.38 19.38 0 0 0-10.724 10.726 1.369 1.369 0 0 1-2.539 0 19.373 19.373 0 0 0-10.724-10.726l-1.192-.481a1.367 1.367 0 0 1 0-2.538l.506-.2a19.386 19.386 0 0 0 10.726-10.728l.682-1.693a1.369 1.369 0 0 1 2.539 0l.684 1.7a19.39 19.39 0 0 0 10.723 10.724l.506.2a1.367 1.367 0 0 1 0 2.538Z"/><path data-name="Path 129268" d="m21.477 12.635-.94.38a15.287 15.287 0 0 0-8.459 8.459 1.079 1.079 0 0 1-2 0 15.28 15.28 0 0 0-8.458-8.459l-.94-.38a1.079 1.079 0 0 1 0-2l.4-.161a15.284 15.284 0 0 0 8.46-8.462l.538-1.336a1.081 1.081 0 0 1 2 0l.54 1.338a15.286 15.286 0 0 0 8.458 8.458l.4.162a1.08 1.08 0 0 1 0 2Z"/></g></svg>