<svg width="20" height="20" viewBox="0 0 20 20" fill="none" xmlns="http://www.w3.org/2000/svg">
<path d="M10 20C15.5229 20 20 15.5229 20 10C20 4.47715 15.5229 0 10 0C4.47715 0 0 4.47715 0 10C0 15.5229 4.47715 20 10 20Z" fill="url(#paint0_linear_807_432)"/>
<path fill-rule="evenodd" clip-rule="evenodd" d="M14.549 15.3109C13.2972 16.2463 11.7366 16.8013 10.0444 16.8013C7.5582 16.8013 5.356 15.6032 4 13.7611C5.15168 12.8929 5.6779 11.8007 6.07957 10.5997C6.17707 10.3087 6.2593 10.0102 6.34151 9.71183C6.54759 8.9638 6.75361 8.21595 7.2002 7.58667C7.95565 6.52388 9.34478 5.97831 10.6481 6.13065C11.9513 6.28298 13.1364 7.08716 13.8507 8.17475C13.901 8.25138 13.9492 8.32913 13.9951 8.40793C14.6573 8.39931 15.3454 8.39563 15.9953 8.47237C16.1063 8.48477 16.16 8.61227 16.0902 8.69553C15.6582 9.21553 15.1855 9.69811 14.6579 10.132C14.8266 10.865 14.8896 11.6303 14.8979 12.3816C14.908 13.4053 14.7643 14.3661 14.549 15.3109ZM12.4713 8.54122C12.3677 8.32495 12.18 8.13513 11.9423 8.08771C11.7111 8.04151 11.4458 8.16088 11.3679 8.3791L10.9428 8.44236C11.1661 8.53909 11.256 8.73555 11.3412 8.92164C11.3942 9.03767 11.4455 9.14974 11.5262 9.23116C11.7361 9.44333 12.0988 9.54114 12.3408 9.36359C12.5869 9.1855 12.6 8.81331 12.4713 8.54122Z" fill="url(#paint1_linear_807_432)"/>
<path d="M11.7241 6.40993C11.3787 6.26822 11.017 6.1708 10.6447 6.12652C9.53124 5.99721 8.35329 6.37627 7.56561 7.15211L7.29172 7.16097C6.72425 7.36289 6.11559 7.57014 5.52842 7.4302C4.94125 7.29205 4.43642 6.6526 4.6763 6.10349C4.81057 5.79705 5.13638 5.60575 5.46934 5.54375C5.532 5.53136 5.59644 5.52427 5.66089 5.51896C5.50157 5.42153 5.38341 5.24795 5.41385 5.06905C5.46039 4.79095 5.78978 4.6705 6.07084 4.62622C6.58819 4.54651 7.11987 4.54827 7.63544 4.63685C7.58173 4.59256 7.53518 4.54119 7.49938 4.48274C7.34184 4.23475 7.3687 3.88758 7.56024 3.66616C7.90575 3.26761 8.55558 3.37921 9.03892 3.59885C10.2527 4.14973 11.23 5.18418 11.7241 6.40993Z" fill="url(#paint2_linear_807_432)"/>
<path d="M18.7593 12H15.0802C14.5359 12 14.1266 12.4094 14.1266 12.9537V13.7401L14.1327 13.8546C14.1857 14.3408 14.5748 14.6938 15.0802 14.6938L15.155 14.693L15.0974 14.7684C14.8734 15.095 14.8799 15.5024 15.0943 15.836L15.407 16.257L14.9537 16.2576C14.4094 16.2576 14 16.667 14 17.2113C14.0328 17.6377 14.0957 17.9484 14.1986 18.2142C14.4082 18.7594 14.7634 19.2028 15.2493 19.5239C15.7303 19.8418 16.2862 20 16.8972 20C17.5091 20 18.0602 19.8508 18.532 19.5475C19.0126 19.2386 19.3653 18.8031 19.5768 18.2617C19.7227 17.8809 19.7944 17.4826 19.7944 17.0667C19.7944 16.5999 19.7137 16.1724 19.5472 15.7895L19.4655 15.6195C19.3505 15.3993 19.2118 15.2053 19.0511 15.0392L18.982 14.972L19.3696 14.6215C19.5992 14.3932 19.713 14.1276 19.713 13.8395V12.9537C19.713 12.4094 19.3036 12 18.7593 12Z" fill="#FF6400"/>
<path d="M16.898 19.2008C17.362 19.2008 17.7627 19.0923 18.1002 18.8754C18.4377 18.6584 18.6818 18.3571 18.8324 17.9714C18.9409 17.6882 18.9951 17.3868 18.9951 17.0674C18.9951 16.7059 18.9349 16.3865 18.8143 16.1093C18.5853 15.591 18.2087 15.2806 17.6844 15.1782C17.6241 15.1661 17.6121 15.142 17.6482 15.1059L18.8324 14.0302C18.8867 13.9759 18.9138 13.9126 18.9138 13.8403V12.9545C18.9138 12.852 18.8626 12.8008 18.7601 12.8008H15.081C14.9786 12.8008 14.9273 12.852 14.9273 12.9545V13.7409C14.9273 13.8433 14.9786 13.8946 15.081 13.8946H17.1691C17.1932 13.8946 17.2083 13.9021 17.2143 13.9172C17.2204 13.9322 17.2143 13.9458 17.1963 13.9578L15.7861 15.1872C15.7198 15.2475 15.7138 15.3198 15.768 15.4042L16.2471 16.046C16.3074 16.1243 16.3797 16.1364 16.4641 16.0821C16.6328 15.9676 16.7714 15.9104 16.8799 15.9104C17.2053 15.9104 17.4343 16.052 17.5669 16.3352C17.6633 16.5401 17.7115 16.7722 17.7115 17.0313C17.7115 17.2723 17.6693 17.4833 17.585 17.6641C17.4584 17.9593 17.2264 18.107 16.8889 18.107C16.5334 18.107 16.2983 17.9413 16.1838 17.6098C16.1356 17.4893 16.1055 17.3567 16.0934 17.2121C16.0814 17.1096 16.0271 17.0584 15.9307 17.0584H14.9545C14.852 17.0584 14.8008 17.1096 14.8008 17.2121C14.8249 17.5013 14.8731 17.7394 14.9454 17.9262C15.0961 18.3179 15.3447 18.6283 15.6912 18.8573C16.0377 19.0863 16.44 19.2008 16.898 19.2008Z" fill="white"/>
<defs>
<linearGradient id="paint0_linear_807_432" x1="10" y1="0" x2="10" y2="11.9833" gradientUnits="userSpaceOnUse">
<stop stop-color="#FF9300"/>
<stop offset="1" stop-color="#FF6000"/>
</linearGradient>
<linearGradient id="paint1_linear_807_432" x1="9.6234" y1="7.37341" x2="4.91423" y2="23.5784" gradientUnits="userSpaceOnUse">
<stop stop-color="white"/>
<stop offset="1" stop-color="white" stop-opacity="0"/>
</linearGradient>
<linearGradient id="paint2_linear_807_432" x1="9.54277" y1="5.33795" x2="9.21982" y2="7.22259" gradientUnits="userSpaceOnUse">
<stop stop-color="white"/>
<stop offset="1" stop-color="white" stop-opacity="0"/>
</linearGradient>
</defs>
</svg>
