<svg width="49" height="48" viewBox="0 0 49 48" fill="none" xmlns="http://www.w3.org/2000/svg">
<path d="M9.5 11C9.5 9.89543 10.3954 9 11.5 9H16.5C19.8137 9 22.5 11.6863 22.5 15V20C22.5 21.1046 21.6046 22 20.5 22H15.5C12.1863 22 9.5 19.3137 9.5 16V11Z" stroke="black" stroke-width="2" stroke-linejoin="round"/>
<path d="M39.5 37C39.5 38.1046 38.6046 39 37.5 39H32.5C29.1863 39 26.5 36.3137 26.5 33V28C26.5 26.8954 27.3954 26 28.5 26H33.5C36.8137 26 39.5 28.6863 39.5 32V37Z" stroke="black" stroke-width="2" stroke-linejoin="round"/>
<path d="M22.5 28C22.5 26.8954 21.6046 26 20.5 26H15.5C12.1863 26 9.5 28.6863 9.5 32V37C9.5 38.1046 10.3954 39 11.5 39H16.5C19.8137 39 22.5 36.3137 22.5 33V28Z" fill="#0066FF" fill-opacity="0.6" stroke="black" stroke-width="2" stroke-linejoin="round"/>
<path d="M33.8125 9H33H32.5C29.1863 9 26.5 11.6863 26.5 15V20C26.5 21.1046 27.3954 22 28.5 22H33.5C36.8137 22 39.5 19.3137 39.5 16V15.5V14.6875" stroke="black" stroke-width="2" stroke-linecap="round" stroke-linejoin="round"/>
<circle cx="38.5" cy="10" r="2" fill="#0066FF"/>
</svg>
