<svg width="49" height="48" viewBox="0 0 49 48" fill="none" xmlns="http://www.w3.org/2000/svg">
<path opacity="0.3" d="M13.75 38C11.6789 38 10 36.3211 10 34.25L10 12.75C10 10.6789 11.6789 9 13.75 9L14 9L14 38L13.75 38Z" fill="#0066FF"/>
<path d="M36.4092 18L40.6518 22.2426L25.0955 37.799L20.0553 38.4646L20.8528 33.5563L36.4092 18Z" stroke="black" stroke-width="2" stroke-linejoin="round"/>
<path d="M32.2192 21.5526L36.4619 25.7953" stroke="black" stroke-width="2"/>
<path d="M14.5 38.0268H11.1729C10.6206 38.0268 10.1729 37.5791 10.1729 37.0268V10.1406C10.1729 9.58834 10.6206 9.14062 11.1729 9.14062H24.3451H37.5174C38.0697 9.14062 38.5174 9.58834 38.5174 10.1406V13" stroke="black" stroke-width="1.5" stroke-miterlimit="10" stroke-linecap="round"/>
<rect x="8.13184" y="7.14062" width="4" height="4" rx="1" fill="black"/>
<rect x="8.13184" y="35.5771" width="4" height="4" rx="1" fill="black"/>
<rect x="36.5056" y="7.14062" width="4" height="4" rx="1" fill="black"/>
</svg>
