<svg width="49" height="48" viewBox="0 0 49 48" fill="none" xmlns="http://www.w3.org/2000/svg">
<rect opacity="0.3" width="30.2529" height="4.41797" rx="2.20898" transform="matrix(1 0 0 -1 9.5 40.2097)" fill="#0066FF"/>
<path d="M28 9H14C11.5147 9 9.5 11.0147 9.5 13.5V36.0942C9.5 38.5795 11.5147 40.5942 14 40.5942H35.2529C37.7382 40.5942 39.7529 38.5795 39.7529 36.0942V19.4313C39.7529 18.2555 37.8847 17.9895 37.5213 19.1077C35.6258 24.9412 32.8472 32 30.5 32C28.2005 32 26.401 27 24.1016 27C21.5677 27 19.0339 32 16.5 32" stroke="black" stroke-width="2" stroke-miterlimit="10" stroke-linecap="round"/>
<circle cx="19.5" cy="19" r="3.25" fill="#0066FF" stroke="black" stroke-width="1.5"/>
<path d="M33.5 9H40" stroke="black" stroke-width="2" stroke-linecap="round" stroke-linejoin="round"/>
<path d="M36.7502 12.25L36.7502 5.75" stroke="black" stroke-width="2" stroke-linecap="round" stroke-linejoin="round"/>
</svg>
