<svg width="49" height="48" viewBox="0 0 49 48" fill="none" xmlns="http://www.w3.org/2000/svg">
<path d="M9.5 11C9.5 10.4477 9.94772 10 10.5 10H21.5C22.0523 10 22.5 10.4477 22.5 11V25C22.5 25.5523 22.0523 26 21.5 26H10.5C9.94772 26 9.5 25.5523 9.5 25V11Z" stroke="black" stroke-width="2" stroke-linejoin="round"/>
<path d="M39.5 37C39.5 37.5523 39.0523 38 38.5 38H27.5C26.9477 38 26.5 37.5523 26.5 37V23C26.5 22.4477 26.9477 22 27.5 22H38.5C39.0523 22 39.5 22.4477 39.5 23V37Z" stroke="black" stroke-width="2" stroke-linejoin="round"/>
<path d="M39.5 17C39.5 17.5523 39.0523 18 38.5 18H27.5C26.9477 18 26.5 17.5523 26.5 17V11C26.5 10.4477 26.9477 10 27.5 10H38.5C39.0523 10 39.5 10.4477 39.5 11V17Z" fill="#0066FF" fill-opacity="0.3" stroke="black" stroke-width="2" stroke-linejoin="round"/>
<path d="M22.5 31C22.5 30.4477 22.0523 30 21.5 30H10.5C9.94772 30 9.5 30.4477 9.5 31V37C9.5 37.5523 9.94772 38 10.5 38H21.5C22.0523 38 22.5 37.5523 22.5 37V31Z" fill="#0066FF" stroke="black" stroke-width="2" stroke-linejoin="round"/>
</svg>
