<svg xmlns="http://www.w3.org/2000/svg" enable-background="new 0 0 400 350" viewBox="0 0 400 350"><path d="M370.118 298.96h-89.42c-.002-.26.33 1.056-6.347-21.17h46.473c3.03 0 5.49-2.46 5.49-5.49v-75.01c11.16-3.25 18.94-13.61 18.94-25.27 0-12.11-8.43-22.79-20.13-25.59.839-2.8 1.169-7.548.23-12.358h28.808v-29.46h-1v28.46h-28.048v-.002c-2.189-10.928-13.383-20.91-26.82-20.91a27.3 27.3 0 0 0-14.55 4.17c-.802-4.583-2.942-10.461-5.64-14.34l-.003-.005h16.621a.5.5 0 0 0 .5-.5v-22.96a.5.5 0 1 0-1 0v22.46H277.42c-7.15-10.347-19.138-17.075-32.326-17.075-18.484 0-33.796 12.642-38.01 29.64a28.49 28.49 0 0 0-8.9-2.14V83.72c0-.27-.23-.5-.5-.5h-26.14c-.28 0-.5.23-.5.5 0 .28.22.5.5.5h25.64v27.12c-18.72-1.171-34.407 16.218-30.48 35.56-9.122 2.85-16.324 10.852-18.02 20.7l1.07-.28c3.22-16.89 21.875-25.691 36.85-17.65a.498.498 0 1 0 .47-.88c-5.948-3.193-12.954-3.97-19.41-2.17-4.602-22.645 18.354-40.985 39.18-32.08a39.664 39.664 0 0 0-.43 14.92c.052.313.382.472.57.41.27-.04.46-.3.41-.57-3.77-23.188 13.977-44.39 37.7-44.39 22.011 0 40.84 19.24 37.91 43.12-.04.27.16.52.43.56h.06c.25 0 .47-.18.5-.44a39.15 39.15 0 0 0-.1-10.72c4.28-2.8 9.25-4.27 14.4-4.27 21.638 0 34.356 24.635 21.59 42.23-.16.23-.11.54.11.7.236.157.538.1.7-.11 1.9-2.63 3.3-5.52 4.17-8.58 11.26 2.68 19.39 12.96 19.39 24.62 0 11.06-7.28 20.91-17.79 24.18v-23.85c0-3.11-2.53-5.64-5.64-5.64-145.179.053-136.338-.134-137.53.15 3.777 1.525 9.285 3.75 15.11 6.1h116.57v84h-135.01v-3.38h23.39c6.095 0 11.07-4.938 11.07-11.08v-58.16l1.31-3.24c.01-.02 0-.04 0-.06-10.603-4.278-12.928-5.214-37.75-15.23.047-.117-.608 1.493-4.65 11.47l1.01 3.9c4.44 20.071 4.007 17.924-.52 0l-1.03-3.98-3.71-14.36c-41.657 10.775-14.218 3.675-39.38 10.18l3.13 12.12h-5v-1.78c0-.93.76-1.68 1.69-1.68h1.9l-.26-1h-1.64c-1.48 0-2.69 1.2-2.69 2.68v1.78h-5.307c-2.593-4.093-7.5-11.25-11.619-13.809-1.983-1.303-10.36-4.059-20.444-5.714l1.04-7.337c2.03 1.27 6.29 3.67 7.74 2.47 3.669-3.02 2.83-20.212 2.34-27.085 7.95-2.377 13.7-5.423-.036-10.331-34.051-12.165-32.86 17.818-30.974 22.332.8 1.917 1.678 6.177 2.492 8.209.193.791.923 1.33 1.729 1.553l-.001.012-1.03 8.73c-32.314-.105-42.045 14.573-46.294 45.7-.686 7.1-2.823 22.582.387 33.648.822 18.839 2.913 38.627 4.944 55.442h-1.683a.5.5 0 1 0 0 1h340a.5.5 0 1 0 0-1zM100.625 235.11c2.9-2.17 6.099-3.23 9.589-3.21l.12 6.46c0 .272.23.513.54.49 12.815-.947 15.103 3.37 9.42 4.5l-2.73-.4a.498.498 0 0 0-.57.42c-.04.27.15.53.42.57l2.39.35h.01c.058.088 1.298.597 1.89 1.24.546.547.438 1.215.07 1.89-.426.638-1.052.857-1.8 1h-.01c-.82.13-1.91.11-3.33-.05-.287 0-.573.031-.63.42-.04.292.179.52.42.56 1.76.28 2.97 1.04 3.34 1.63.334.53-.135 1.317-.67 1.45-.5.13-1.31.05-2.74-.24-.577-.115-.849.693-.31.95 1.68.79 1.96 1.32 2 1.51.02.08.02.17-.11.33-2.052 2.556-11.506 1.957-17.38-2.88.097-23.283.063-15.253.07-16.99zm12.254 22.35h.005c2.917.415 7.893-1.646 5.57-3.97l55.76.09v18.72c0 2.84 2.31 5.14 5.15 5.14 4.989.452 52.633.336 59.21.35l4.509 14.638H224.86c-.28 0-.5.22-.5.5v6.033H111.58c1.397-15.193 1.824-28.78 1.3-41.5zm207.945-89.9c2.64 0 4.79 2.15 4.79 4.79v99.95c0 2.64-2.15 4.79-4.79 4.79h-3.38a5.144 5.144 0 0 0 3.28-4.79v-99.95c0-2.33-1.603-4.23-3.28-4.79h3.38zm-74.24 95.23c2.42 0 4.37 1.95 4.37 4.34 0 2.42-1.95 4.37-4.37 4.37s-4.36-1.95-4.36-4.37c0-2.39 1.94-4.34 4.36-4.34zm-125.31-10.21c-.26 0-.53-.01-.78-.03.76-1.267.368-2.215-.9-3.08 1.477-.129 2.744-.655 3.28-2.02.923-2.282-1.27-3.09-1.27-3.38 4.664-1.21 4.395-7.096-10.28-6.25l-.12-51.39c0-.16.13-.29.29-.29h30.38c.09 0 .17.04.23.11.371.479 6.503 8.362 7.74 9.95.09.12.24.19.39.19h41.1c.52 0 .95.42.95.94v44.86c.03.1-.422 7.229 6.48 10.39h-77.49zm92.15-10.08c0 13.175-20.14 13.559-20.14-.31v-14.97l3.25 1.34 16.89-41.75v55.69zm-138.63-86.96v-.003c.833-.057 1.543-.5 1.594-1.424-1.003-14.228 6.243-9.709 6.18-5.728 0 1.65 2.83 1.65 2.83 0 0 0-.428-7.743.808-9.897.854-1.49 7.527-2.85 13.408-4.538.59 8.43.99 23.56-2.01 26.03-1.162.966-11.208-4.444-12.438-7.076-.265-.569-1.123-.488-1.243.192-.398 3.963 4.205 7.965 5.191 7.85v.005l-1.65 11.68-13.72-8.16 1.05-8.93zm-1.84 9.631 14.65 8.7a.5.5 0 0 0 .75-.36l.978-6.901c10.266 1.688 18.35 4.456 20.038 5.565 1.523.946 3.336 2.693 5.335 5.111-2.767-1.77-5.54-2.625-5.725-2.68l-.288.957c6.947 2.103 9.222 5.793 11.649 9.578h-8.847c-.71 0-1.29.58-1.29 1.29v44.47c-3.4-.02-6.68 1-9.57 2.98h-.001l.016-2.557a.5.5 0 0 0-.447-.5l-40.17-4.218c1.957-5.935 2.26-11.216.93-16.13a.5.5 0 1 0-.965.262c1.31 4.836.958 10.07-1.065 15.99l-7.842 5.612.582.814 7.824-5.599 34.685 3.641v16.333h1V231.3l4.465.469c-.001-.1-.093 3.43-.148 22.618-2.797.2-17.825 1.215-33.049 1.239-10.47-.001-13.866-6.696-14.007-6.986l-.9.436c.114.237 2.236 4.458 8.1 6.487-24.325-.51-29.054-2.664-31.827-12.346-.69-16.49-2.56-50.276 11.728-55.335l-.331-.944c-.303.106-5.61 2.085-9.45 10.703 3.655-19.532 14.22-32.587 43.192-32.47zm-6.93 91.484c16.476 0 32.776-1.21 34.01-1.303a.5.5 0 0 0 .461-.495l.01-1.535c3.36 2.529 7.78 3.859 11.369 4.099h.003c.323 7.78.277 16.107-.134 24.89h-80.86c-1.121-10.412-2.276-22.927-2.91-35.692 3.237 7.336 8.483 10.037 38.052 10.036z"/><path d="M175.644 168.81c-.89.91-1.43 2.16-1.43 3.54l1.43-3.54zM373.391 70.349h-39.457c-.931 0-1.47.858-1.47 1.51v25.65c0 .826.694 1.47 1.47 1.47h39.46c.763 0 1.47-.64 1.47-1.47V71.86c0-.81-.612-1.51-1.473-1.51zm-39.927 1.61 15.817 12.742-15.817 12.739V71.96zm.92 26.02 15.69-12.64 2.451 1.975a1.805 1.805 0 0 0 2.275 0l2.452-1.975h.002l15.69 12.64h-38.56zm23.66-13.279 15.82-12.742V97.44l-15.82-12.74zM124.154 106.55c0 .78.62 1.41 1.4 1.41h36.84c.77 0 1.4-.63 1.4-1.41V60.38c0-.78-.63-1.41-1.4-1.41l-27.605-.029c-.1.016-.738-.1-1.254.436l-9.003 9.354c-.53.53-.395 1.13-.415 1.265l.037 36.554zm38.64-46.17v46.17c0 .22-.18.41-.4.41h-36.84a.41.41 0 0 1-.4-.41V70.528h8.976c.66 0 1.19-.532 1.19-1.191V59.97h27.074c.22 0 .4.18.4.41z"/><path d="M130.943 76.3a.5.5 0 1 0 0 1h26.06a.5.5 0 1 0 0-1h-26.06zM157.004 82.244h-26.061a.5.5 0 1 0 0 1h26.06a.5.5 0 1 0 0-1zM157.004 88.188h-26.061a.5.5 0 1 0 0 1h26.06a.5.5 0 1 0 0-1zM157.004 94.131h-26.061a.5.5 0 1 0 0 1h26.06a.5.5 0 1 0 0-1zM157.004 100.075h-26.061a.5.5 0 1 0 0 1h26.06a.5.5 0 1 0 0-1zM294.724 74.53c6.76 0 12.25-5.49 12.25-12.24 0-6.76-5.49-12.25-12.25-12.25s-12.25 5.49-12.25 12.25c0 6.75 5.49 12.24 12.25 12.24zm0-23.49c6.21 0 11.25 5.04 11.25 11.25 0 6.2-5.04 11.24-11.25 11.24-6.2 0-11.25-5.04-11.25-11.24 0-6.21 5.05-11.25 11.25-11.25z"/><path d="m292.141 68.411 8.375-5.805a.392.392 0 0 0 0-.634l-8.375-5.812a.389.389 0 0 0-.611.317v11.617c0 .309.343.496.611.317zM276.054 206.315h4.395c.7 0 1.32-.4 1.61-1.05.29-.64.18-1.37-.3-1.9l-14.78-16.49c-.67-.74-1.96-.74-2.63 0l-14.8 16.49a1.75 1.75 0 0 0-.3 1.9c.29.65.91 1.05 1.61 1.05h4.405v23.435c0 .28.23.5.5.5h19.79c.27 0 .5-.22.5-.5v-23.435zm-19.79 22.935v-22.935h18.79v22.935h-18.79zM275.55 234.514h-19.78c-.28 0-.5.22-.5.5v3.49c0 .28.22.5.5.5h19.78c.28 0 .5-.22.5-.5v-3.49c0-.28-.22-.5-.5-.5zM206.344 141.42v9.66c0 .97.78 1.75 1.75 1.75h77.37c.97 0 1.75-.78 1.75-1.75v-9.66c0-.97-.78-1.75-1.75-1.75h-77.37c-.97 0-1.75.78-1.75 1.75zm6.58 2.25h30.67v5.16h-30.67a2.579 2.579 0 1 1 0-5.16zM53.79 234.734l3.836-2.57.557.832-3.836 2.57zM116.994 193h1v30.25h-1zM145.034 245.6v1h32.46v-1h-32.46zM76.748 84.031a.5.5 0 1 0 .668-.744l-1.518-1.362a.5.5 0 0 0-.668.744l1.518 1.362zM140.25 145.706a2.113 2.113 0 1 0 4.226.003 2.113 2.113 0 0 0-4.226-.003zM250.248 70.799a26.785 26.785 0 0 1 4.937 3.244.5.5 0 1 0 .637-.77 27.805 27.805 0 0 0-5.12-3.366.5.5 0 0 0-.454.892zM215.714 72.824a.5.5 0 1 0 .668-.744l-1.517-1.363a.5.5 0 0 0-.668.744l1.517 1.363zM192.486 60.762a2.113 2.113 0 1 0 .003-4.227 2.113 2.113 0 0 0-.003 4.227zM53.376 130.367a26.798 26.798 0 0 1 4.936-3.245.5.5 0 0 0-.453-.891 27.826 27.826 0 0 0-5.12 3.366.5.5 0 0 0 .637.77zM104.282 95.006a26.76 26.76 0 0 1 4.936 3.245.5.5 0 0 0 .638-.77 27.779 27.779 0 0 0-5.121-3.366.5.5 0 0 0-.453.891zM364.218 196.212l1.518-1.362a.5.5 0 0 0-.668-.745l-1.518 1.363a.5.5 0 0 0 .668.744zM360.312 154.944a2.113 2.113 0 1 0-4.226.003 2.113 2.113 0 0 0 4.226-.003zM348.844 233.008a27.855 27.855 0 0 0-5.12 3.366.5.5 0 1 0 .637.77 26.835 26.835 0 0 1 4.936-3.244.5.5 0 1 0-.453-.892zM338.757 206.885a.5.5 0 0 0 .038.706l1.517 1.363a.5.5 0 1 0 .668-.745l-1.517-1.362a.502.502 0 0 0-.706.038zM327.729 119.195l1.516-1.362a.5.5 0 0 0-.667-.744l-1.517 1.362a.5.5 0 0 0 .668.744zM319.578 94.8a2.113 2.113 0 1 0-.003-4.225 2.113 2.113 0 0 0 .003 4.226zM252.534 128.42c.198.218.529.22.71.04l1.52-1.36c.2-.18.22-.5.04-.71-.19-.2-.5-.22-.71-.03l-1.52 1.36c-.2.18-.22.5-.04.7zM254.584 103.39c1.17 0 2.11-.95 2.11-2.12 0-1.16-.94-2.11-2.11-2.11-1.16 0-2.11.95-2.11 2.11 0 1.17.95 2.12 2.11 2.12zM229.974 107.19c.19-.2.17-.52-.03-.7l-1.52-1.37a.514.514 0 0 0-.71.04c-.18.21-.17.52.04.71l1.52 1.36c.17.17.49.19.7-.04z"/></svg>